# xmcd
#
# Track frame offsets:
#	150
#	19967
#	38685
#	57015
#	76332
#	96615
#	118102
#	135617
#	151945
#	168412
#
# Disc length: 2544 seconds
#
# Revision: 1
# Processed by: cddbd v1.5PL3 Copyright (c) Steve Scherf et al.
# Submitted via: CDex 1.50Beta5
#
DISCID=7c09ee0a
DTITLE=小川範子 - こわれる〜好きとつたえて 好きとこたえて〜
DYEAR=1988
DGENRE=Pop
TTITLE0=渓のおくりもの
TTITLE1=甘い涙
TTITLE2=水浴プラネット
TTITLE3=架空の思い出
TTITLE4=こわれる
TTITLE5=花のように嘘つきに
TTITLE6=永遠のうたたね
TTITLE7=目覚め
TTITLE8=秋天的童話
TTITLE9=夜はやさし
EXTD=
EXTT0=
EXTT1=
EXTT2=
EXTT3=
EXTT4=
EXTT5=
EXTT6=
EXTT7=
EXTT8=
EXTT9=
PLAYORDER=
